<svg preserveAspectRatio="none" width="100%" height="100%" overflow="visible" style="display: block;" viewBox="0 0 46 51" fill="none" xmlns="http://www.w3.org/2000/svg">
<g id="Overlay">
<rect width="46" height="51" rx="12" fill="var(--fill-0, white)" fill-opacity="0.1"/>
<path id="Icon" d="M20.9 29.9L31.475 19.325L29.375 17.225L20.9 25.7L16.625 21.425L14.525 23.525L20.9 29.9V29.9M23 38C20.925 38 18.975 37.6063 17.15 36.8188C15.325 36.0313 13.7375 34.9625 12.3875 33.6125C11.0375 32.2625 9.96875 30.675 9.18125 28.85C8.39375 27.025 8 25.075 8 23C8 20.925 8.39375 18.975 9.18125 17.15C9.96875 15.325 11.0375 13.7375 12.3875 12.3875C13.7375 11.0375 15.325 9.96875 17.15 9.18125C18.975 8.39375 20.925 8 23 8C25.075 8 27.025 8.39375 28.85 9.18125C30.675 9.96875 32.2625 11.0375 33.6125 12.3875C34.9625 13.7375 36.0313 15.325 36.8188 17.15C37.6063 18.975 38 20.925 38 23C38 25.075 37.6063 27.025 36.8188 28.85C36.0313 30.675 34.9625 32.2625 33.6125 33.6125C32.2625 34.9625 30.675 36.0313 28.85 36.8188C27.025 37.6063 25.075 38 23 38V38M23 35C26.35 35 29.1875 33.8375 31.5125 31.5125C33.8375 29.1875 35 26.35 35 23C35 19.65 33.8375 16.8125 31.5125 14.4875C29.1875 12.1625 26.35 11 23 11C19.65 11 16.8125 12.1625 14.4875 14.4875C12.1625 16.8125 11 19.65 11 23C11 26.35 12.1625 29.1875 14.4875 31.5125C16.8125 33.8375 19.65 35 23 35V35M23 23V23V23V23V23V23V23V23V23V23" fill="var(--fill-0, white)"/>
</g>
</svg>
