<svg preserveAspectRatio="none" width="100%" height="100%" overflow="visible" style="display: block;" viewBox="0 0 20 18" fill="none" xmlns="http://www.w3.org/2000/svg">
<g id="Container">
<path id="Icon" d="M4 18V16L5 15H2C1.45 15 0.979167 14.8042 0.5875 14.4125C0.195833 14.0208 0 13.55 0 13V2C0 1.45 0.195833 0.979167 0.5875 0.5875C0.979167 0.195833 1.45 0 2 0H18C18.55 0 19.0208 0.195833 19.4125 0.5875C19.8042 0.979167 20 1.45 20 2V13C20 13.55 19.8042 14.0208 19.4125 14.4125C19.0208 14.8042 18.55 15 18 15H15L16 16V18H4V18M2 13H18V13V13V2V2V2H2V2V2V13V13V13V13M2 13V13V13V2V2V2V2V2V2V13V13V13V13V13" fill="var(--fill-0, #05101D)"/>
</g>
</svg>
