<svg xmlns="http://www.w3.org/2000/svg" viewBox="0 0 420 320" fill="none" role="img" aria-label="Warehouse delivery illustration">
  <rect width="420" height="320" fill="#F8FAFC"/>
  <ellipse cx="210" cy="290" rx="160" ry="18" fill="#E2E8F0"/>
  <rect x="40" y="150" width="200" height="100" rx="8" fill="#94A3B8"/>
  <rect x="55" y="165" width="50" height="40" rx="4" fill="#CBD5E1"/>
  <rect x="120" y="130" width="110" height="120" rx="6" fill="#64748B"/>
  <rect x="135" y="150" width="35" height="55" rx="3" fill="#F8FAFC"/>
  <rect x="180" y="150" width="35" height="55" rx="3" fill="#F8FAFC"/>
  <circle cx="70" cy="255" r="22" fill="#1E293B"/>
  <circle cx="70" cy="255" r="10" fill="#94A3B8"/>
  <circle cx="200" cy="255" r="22" fill="#1E293B"/>
  <circle cx="200" cy="255" r="10" fill="#94A3B8"/>
  <rect x="250" y="175" width="48" height="40" rx="4" fill="#B45309"/>
  <rect x="258" y="183" width="32" height="24" rx="2" fill="#F59E0B"/>
  <rect x="305" y="160" width="48" height="55" rx="4" fill="#B45309"/>
  <rect x="313" y="170" width="32" height="35" rx="2" fill="#F59E0B"/>
  <circle cx="280" cy="150" r="18" fill="#FDBA74"/>
  <path d="M262 170c8-14 28-14 36 0" fill="#EA580C"/>
  <rect x="268" y="168" width="24" height="36" rx="6" fill="#EA580C"/>
  <rect x="266" y="200" width="12" height="28" rx="3" fill="#1E293B"/>
  <rect x="282" y="200" width="12" height="28" rx="3" fill="#1E293B"/>
  <rect x="292" y="175" width="22" height="18" rx="2" fill="#B45309"/>
  <circle cx="350" cy="145" r="16" fill="#FDBA74"/>
  <path d="M335 162c6-10 24-10 30 0" fill="#FFFFFF"/>
  <rect x="338" y="160" width="24" height="38" rx="6" fill="#FFFFFF"/>
  <path d="M336 165h28v24h-28z" fill="#F97316" opacity="0.85"/>
  <rect x="336" y="196" width="11" height="26" rx="3" fill="#1E293B"/>
  <rect x="352" y="196" width="11" height="26" rx="3" fill="#1E293B"/>
  <rect x="362" y="168" width="20" height="26" rx="3" fill="#E2E8F0" stroke="#94A3B8"/>
  <path d="M366 174h12M366 180h12M366 186h8" stroke="#64748B" stroke-width="1.5" stroke-linecap="round"/>
</svg>
