<svg preserveAspectRatio="none" width="100%" height="100%" overflow="visible" style="display: block;" viewBox="0 0 20 20" fill="none" xmlns="http://www.w3.org/2000/svg">
<g id="Icon">
<path id="Vector" d="M2.5 6.66646V16.6665C2.5 16.8875 2.58779 17.0994 2.74407 17.2557C2.90035 17.412 3.11232 17.4998 3.33333 17.4998H7.5C7.72101 17.4998 7.93297 17.412 8.08925 17.2557C8.24553 17.0994 8.33333 16.8875 8.33333 16.6665V10.8331H11.6667V16.6665C11.6667 16.8875 11.7545 17.0994 11.9107 17.2557C12.067 17.412 12.279 17.4998 12.5 17.4998H16.6667C16.8877 17.4998 17.0996 17.412 17.2559 17.2557C17.4122 17.0994 17.5 16.8875 17.5 16.6665V6.66646C17.5 6.53709 17.4699 6.4095 17.412 6.29378C17.3542 6.17807 17.2702 6.07742 17.1667 5.9998L10.5 0.999794C10.3558 0.891609 10.1803 0.833128 10 0.833128C9.81969 0.833128 9.64424 0.891609 9.5 0.999794L2.83333 5.9998C2.72983 6.07742 2.64583 6.17807 2.58797 6.29378C2.53012 6.4095 2.5 6.53709 2.5 6.66646V6.66646ZM4.16666 7.08313L10 2.70813L15.8333 7.08313V15.8331H13.3333V9.9998C13.3333 9.77878 13.2455 9.56682 13.0893 9.41054C12.933 9.25426 12.721 9.16646 12.5 9.16646H7.5C7.27898 9.16646 7.06702 9.25426 6.91074 9.41054C6.75446 9.56682 6.66666 9.77878 6.66666 9.9998V15.8331H4.16666V7.08313Z" fill="var(--fill-0, #00B074)"/>
</g>
</svg>
