<svg preserveAspectRatio="none" width="100%" height="100%" overflow="visible" style="display: block;" viewBox="0 0 18.3333 15.8333" fill="none" xmlns="http://www.w3.org/2000/svg">
<g id="Container">
<path id="Icon" d="M14.1667 15.8333V13.3333H11.6667V11.6667H14.1667V9.16667H15.8333V11.6667H18.3333V13.3333H15.8333V15.8333H14.1667V15.8333M0.833333 13.3333V8.33333H0V6.66667L0.833333 2.5H13.3333L14.1667 6.66667V8.33333H13.3333V10.8333H11.6667V8.33333H8.33333V13.3333H0.833333V13.3333M2.5 11.6667H6.66667V8.33333H2.5V11.6667V11.6667M1.70833 6.66667V6.66667H12.4583V6.66667H1.70833V6.66667M0.833333 1.66667V0H13.3333V1.66667H0.833333V1.66667M1.70833 6.66667H12.4583L11.9583 4.16667H2.20833L1.70833 6.66667V6.66667" fill="var(--fill-0, white)"/>
</g>
</svg>
